# xmcd
# Track frame offsets:
# 150
# 25527
# 50020
# 63068
# 81651
# 93921
# 106636
# 122852
# 142575
# 161532
# 173851
# 185782
# 197335
# 214017
# 238499
# 256214
# 269520
# 283600
# 297165
# 311508
# 326850
# 337492
# 341988
#
# Disc length: 4644 seconds
# Revision: 0
# Processed by: cddbd v1.4PL0 Copyright (c) Steve Scherf et al.
# Submitted via: VisiTrax 2.9.5.181 - For more info visit www.synapsa.com
#
DISCID=62122217
DTITLE=Dolly Parton - Heartsongs:  Live From Home
DYEAR=1900
DGENRE=
TTITLE0=Heartsong
TTITLE1=I'm Thinking Tonight Of My Blue Eyes
TTITLE2=Mary Of The Wild Moor
TTITLE3=In The Pines
TTITLE4=My Blue Tears
TTITLE5=Applejack
TTITLE6=Coat Of Many Colors
TTITLE7=Smoky Mountain Memories
TTITLE8=Night Train To Memphis
TTITLE9=What A Friend We Have In Jesus
TTITLE10=Hold Fast To The Right
TTITLE11=Walter Harry Hagan
TTITLE12=Barbara Allen
TTITLE13=Brave Little Soldier
TTITLE14=To Daddy
TTITLE15=True Blue
TTITLE16=Longer Than Always
TTITLE17=Wayfaring Stranger
TTITLE18=My Tennessee Mountain Home
TTITLE19=Heartsong (Reprise)
TTITLE20=Cas Walker Theme
TTITLE21=Black Draught Theme
TTITLE22=PMS Blues
EXTD=
EXTT0=
EXTT1=
EXTT2=
EXTT3=
EXTT4=
EXTT5=
EXTT6=
EXTT7=
EXTT8=
EXTT9=
EXTT10=
EXTT11=
EXTT12=
EXTT13=
EXTT14=
EXTT15=
EXTT16=
EXTT17=
EXTT18=
EXTT19=
EXTT20=
EXTT21=
EXTT22=
PLAYORDER=
